<svg version="1.1" viewBox="0.0 0.0 32.0 32.0" fill="none" stroke="none" stroke-linecap="square" stroke-miterlimit="10" xmlns:xlink="http://www.w3.org/1999/xlink" xmlns="http://www.w3.org/2000/svg"><clipPath id="p.0"><path d="m0 0l32.0 0l0 32.0l-32.0 0l0 -32.0z" clip-rule="nonzero"/></clipPath><g clip-path="url(#p.0)"><path fill="#000000" fill-opacity="0.0" d="m0 0l32.0 0l0 32.0l-32.0 0z" fill-rule="evenodd"/><path fill="#8b5b20" d="m3.961057 3.007874l0 0c0 1.6612029 5.3866844 3.007874 12.031496 3.007874c6.6448126 0 12.031497 -1.3466711 12.031497 -3.007874l0 25.984253c0 1.6612034 -5.3866844 3.0078735 -12.031497 3.0078735c-6.6448116 0 -12.031496 -1.3466702 -12.031496 -3.0078735z" fill-rule="evenodd"/><path fill="#b99c79" d="m3.961057 3.007874l0 0c0 -1.6612029 5.3866844 -3.007874 12.031496 -3.007874c6.6448126 -1.8237636E-15 12.031497 1.3466711 12.031497 3.007874l0 0c0 1.6612029 -5.3866844 3.007874 -12.031497 3.007874c-6.6448116 0 -12.031496 -1.3466711 -12.031496 -3.007874z" fill-rule="evenodd"/><path fill="#000000" fill-opacity="0.0" d="m28.02405 3.007874l0 0c0 1.6612029 -5.3866844 3.007874 -12.031497 3.007874c-6.6448116 0 -12.031496 -1.3466711 -12.031496 -3.007874l0 0c0 -1.6612029 5.3866844 -3.007874 12.031496 -3.007874c6.6448126 -1.8237636E-15 12.031497 1.3466711 12.031497 3.007874l0 25.984253c0 1.6612034 -5.3866844 3.0078735 -12.031497 3.0078735c-6.6448116 0 -12.031496 -1.3466702 -12.031496 -3.0078735l0 -25.984253" fill-rule="evenodd"/></g></svg>